REM DIRINDEX 1\2\5,1\2\6,1\2\7,1\2\8,1\3\9,1\3\10,1\3\11,1\4\12,1\4\13,1\4\14,1\4\15,1\4\16
REM DIRNAME folder01,folder02,folder03,folder04,folder05,folder06,folder07,folder08,folder09,folder10,folder11,folder12,folder13,folder14,folder15,folder16
TITLE ""
FILE "1200_sec02_0462_0469.mp3" MP3
  TRACK 01 AUDIO
    TITLE "0:"
    INDEX 01 00:00:00
  TRACK 02 AUDIO
    TITLE "12:cjc034_05490"
    INDEX 01 00:00:17
  TRACK 03 AUDIO
    TITLE "0:"
    INDEX 01 00:01:26
  TRACK 04 AUDIO
    TITLE "13:cjc034_05491"
    INDEX 01 00:01:60
  TRACK 05 AUDIO
    TITLE "0:"
    INDEX 01 00:04:33
  TRACK 06 AUDIO
    TITLE "14:cjc034_05492"
    INDEX 01 00:04:68
  TRACK 07 AUDIO
    TITLE "0:"
    INDEX 01 00:06:02
  TRACK 08 AUDIO
    TITLE "15:cjc034_05493"
    INDEX 01 00:06:33
  TRACK 09 AUDIO
    TITLE "0:"
    INDEX 01 00:11:25
  TRACK 10 AUDIO
    TITLE "12:cjc034_05494"
    INDEX 01 00:12:60
  TRACK 11 AUDIO
    TITLE "0:"
    INDEX 01 00:14:17
  TRACK 12 AUDIO
    TITLE "13:cjc034_05495"
    INDEX 01 00:14:45
  TRACK 13 AUDIO
    TITLE "0:"
    INDEX 01 00:17:61
  TRACK 14 AUDIO
    TITLE "14:cjc034_05496"
    INDEX 01 00:18:23
  TRACK 15 AUDIO
    TITLE "0:"
    INDEX 01 00:19:54
  TRACK 16 AUDIO
    TITLE "15:cjc034_05497"
    INDEX 01 00:20:08
  TRACK 17 AUDIO
    TITLE "0:"
    INDEX 01 00:23:65
  TRACK 18 AUDIO
    TITLE "12:cjc034_05498"
    INDEX 01 00:25:23
  TRACK 19 AUDIO
    TITLE "0:"
    INDEX 01 00:26:32
  TRACK 20 AUDIO
    TITLE "13:cjc034_05499"
    INDEX 01 00:26:66
  TRACK 21 AUDIO
    TITLE "0:"
    INDEX 01 00:29:29
  TRACK 22 AUDIO
    TITLE "14:cjc034_05500"
    INDEX 01 00:29:64
  TRACK 23 AUDIO
    TITLE "0:"
    INDEX 01 00:30:73
  TRACK 24 AUDIO
    TITLE "15:cjc034_05501"
    INDEX 01 00:31:31
  TRACK 25 AUDIO
    TITLE "0:"
    INDEX 01 00:36:09
  TRACK 26 AUDIO
    TITLE "12:cjc034_05502"
    INDEX 01 00:37:44
  TRACK 27 AUDIO
    TITLE "0:"
    INDEX 01 00:38:37
  TRACK 28 AUDIO
    TITLE "13:cjc034_05503"
    INDEX 01 00:38:73
  TRACK 29 AUDIO
    TITLE "0:"
    INDEX 01 00:41:28
  TRACK 30 AUDIO
    TITLE "14:cjc034_05504"
    INDEX 01 00:41:65
  TRACK 31 AUDIO
    TITLE "0:"
    INDEX 01 00:42:57
  TRACK 32 AUDIO
    TITLE "15:cjc034_05505"
    INDEX 01 00:43:17
  TRACK 33 AUDIO
    TITLE "0:"
    INDEX 01 00:46:60
  TRACK 34 AUDIO
    TITLE "12:cjc034_05506"
    INDEX 01 00:48:22
  TRACK 35 AUDIO
    TITLE "0:"
    INDEX 01 00:49:25
  TRACK 36 AUDIO
    TITLE "13:cjc034_05507"
    INDEX 01 00:49:61
  TRACK 37 AUDIO
    TITLE "0:"
    INDEX 01 00:52:16
  TRACK 38 AUDIO
    TITLE "14:cjc034_05508"
    INDEX 01 00:52:51
  TRACK 39 AUDIO
    TITLE "0:"
    INDEX 01 00:53:53
  TRACK 40 AUDIO
    TITLE "15:cjc034_05509"
    INDEX 01 00:54:19
  TRACK 41 AUDIO
    TITLE "0:"
    INDEX 01 00:58:62
  TRACK 42 AUDIO
    TITLE "16:cjc034_05510"
    INDEX 01 01:00:21
  TRACK 43 AUDIO
    TITLE "0:"
    INDEX 01 01:01:72
  TRACK 44 AUDIO
    TITLE "12:cjc034_05511"
    INDEX 01 01:02:73
  TRACK 45 AUDIO
    TITLE "0:"
    INDEX 01 01:04:25
  TRACK 46 AUDIO
    TITLE "13:cjc034_05512"
    INDEX 01 01:04:56
  TRACK 47 AUDIO
    TITLE "0:"
    INDEX 01 01:05:56
  TRACK 48 AUDIO
    TITLE "14:cjc034_05513"
    INDEX 01 01:06:12
  TRACK 49 AUDIO
    TITLE "0:"
    INDEX 01 01:07:39
  TRACK 50 AUDIO
    TITLE "15:cjc034_05514"
    INDEX 01 01:07:72
  TRACK 51 AUDIO
    TITLE "0:"
    INDEX 01 01:11:60
  TRACK 52 AUDIO
    TITLE "12:cjc034_05515"
    INDEX 01 01:13:16
  TRACK 53 AUDIO
    TITLE "0:"
    INDEX 01 01:14:19
  TRACK 54 AUDIO
    TITLE "13:cjc034_05516"
    INDEX 01 01:14:53
  TRACK 55 AUDIO
    TITLE "0:"
    INDEX 01 01:18:25
  TRACK 56 AUDIO
    TITLE "14:cjc034_05517"
    INDEX 01 01:18:58
  TRACK 57 AUDIO
    TITLE "0:"
    INDEX 01 01:19:60
  TRACK 58 AUDIO
    TITLE "15:cjc034_05518"
    INDEX 01 01:20:18
  TRACK 59 AUDIO
    TITLE "0:"
    INDEX 01 01:23:28
  TRACK 60 AUDIO
    TITLE "12:cjc034_05519"
    INDEX 01 01:24:59
  TRACK 61 AUDIO
    TITLE "0:"
    INDEX 01 01:25:60
  TRACK 62 AUDIO
    TITLE "13:cjc034_05520"
    INDEX 01 01:26:17
  TRACK 63 AUDIO
    TITLE "0:"
    INDEX 01 01:28:16
  TRACK 64 AUDIO
    TITLE "14:cjc034_05521"
    INDEX 01 01:28:49
  TRACK 65 AUDIO
    TITLE "0:"
    INDEX 01 01:29:50
  TRACK 66 AUDIO
    TITLE "15:cjc034_05522"
    INDEX 01 01:30:07
  TRACK 67 AUDIO
    TITLE "0:"
    INDEX 01 01:33:72
